<svg width="256" height="256" viewBox="0 0 256 256" fill="none" xmlns="http://www.w3.org/2000/svg">
<g clip-path="url(#clip0_18_7)">
<rect x="70" y="73" width="113" height="103" fill="white"/>
<path d="M160.301 16.5928C156.095 12.2887 151.072 8.86872 145.525 6.53376C139.979 4.19879 134.022 2.99597 128.004 2.99597C121.986 2.99597 116.029 4.19879 110.483 6.53376C104.937 8.86872 99.9132 12.2887 95.7074 16.5928L85.9886 26.5615L72.0824 26.3896C66.0629 26.3184 60.0899 27.4515 54.5146 29.7223C48.9394 31.9931 43.8744 35.3557 39.6177 39.6124C35.3609 43.8692 31.9983 48.9341 29.7275 54.5094C27.4567 60.0846 26.3237 66.0576 26.3949 72.0771L26.5511 85.9834L16.6136 95.7022C12.3096 99.9079 8.88959 104.932 6.55463 110.478C4.21967 116.024 3.01685 121.981 3.01685 127.999C3.01685 134.017 4.21967 139.974 6.55463 145.52C8.88959 151.066 12.3096 156.09 16.6136 160.296L26.5668 170.015L26.3949 183.921C26.3237 189.94 27.4567 195.913 29.7275 201.489C31.9983 207.064 35.3609 212.129 39.6177 216.386C43.8744 220.642 48.9394 224.005 54.5146 226.276C60.0899 228.547 66.0629 229.68 72.0824 229.608L85.9886 229.452L95.7074 239.39C99.9132 243.694 104.937 247.114 110.483 249.449C116.029 251.784 121.986 252.986 128.004 252.986C134.022 252.986 139.979 251.784 145.525 249.449C151.072 247.114 156.095 243.694 160.301 239.39L170.02 229.437L183.926 229.608C189.946 229.68 195.919 228.547 201.494 226.276C207.069 224.005 212.134 220.642 216.391 216.386C220.648 212.129 224.01 207.064 226.281 201.489C228.552 195.913 229.685 189.94 229.614 183.921L229.457 170.015L239.395 160.296C243.699 156.09 247.119 151.066 249.454 145.52C251.789 139.974 252.992 134.017 252.992 127.999C252.992 121.981 251.789 116.024 249.454 110.478C247.119 104.932 243.699 99.9079 239.395 95.7022L229.442 85.9834L229.614 72.0771C229.685 66.0576 228.552 60.0846 226.281 54.5094C224.01 48.9341 220.648 43.8692 216.391 39.6124C212.134 35.3557 207.069 31.9931 201.494 29.7223C195.919 27.4515 189.946 26.3184 183.926 26.3896L170.02 26.5459L160.301 16.5928ZM164.786 110.093L117.911 156.968C117.185 157.695 116.323 158.273 115.374 158.666C114.424 159.06 113.407 159.263 112.379 159.263C111.352 159.263 110.334 159.06 109.385 158.666C108.436 158.273 107.574 157.695 106.848 156.968L83.4105 133.53C82.6841 132.804 82.1079 131.942 81.7148 130.993C81.3217 130.043 81.1194 129.026 81.1194 127.999C81.1194 126.972 81.3217 125.955 81.7148 125.006C82.1079 124.056 82.6841 123.194 83.4105 122.468C84.1369 121.741 84.9992 121.165 85.9483 120.772C86.8973 120.379 87.9145 120.177 88.9418 120.177C89.969 120.177 90.9862 120.379 91.9353 120.772C92.8843 121.165 93.7466 121.741 94.473 122.468L112.379 140.39L153.723 99.0303C155.19 97.5633 157.18 96.7392 159.254 96.7392C161.329 96.7392 163.319 97.5633 164.786 99.0303C166.252 100.497 167.077 102.487 167.077 104.562C167.077 106.636 166.252 108.626 164.786 110.093Z" fill="#2563EB"/>
</g>
<defs>
<clipPath id="clip0_18_7">
<rect width="250" height="250" fill="white" transform="translate(3 3)"/>
</clipPath>
</defs>
</svg>
